<svg width="169" height="16" viewBox="0 0 169 16" fill="none" xmlns="http://www.w3.org/2000/svg">
<path d="M11.956 13.887H4.964L3.899 16H0.5L8.462 0L16.422 16H13.02L11.955 13.887H11.956ZM6.328 11.134H10.563L8.43 6.884L6.328 11.134ZM27.76 11.585L23.44 7.62V16H20.13V0L27.737 7.122L35.437 0V16H32.14V7.62L27.76 11.585ZM52.517 3.656H45.123V6.623H51.807V9.708H45.123V12.912H52.628V15.997H41.814V0.57H52.517V3.656ZM71.39 8.38C71.39 12.89 68.108 16 63.146 16H58.234V0.574H63.289C68.297 0.569 71.39 3.822 71.39 8.38ZM68.084 8.285C68.084 5.372 66.194 3.658 63.501 3.658H61.539V12.913H63.477C66.122 12.913 68.084 11.204 68.084 8.285ZM75.264 0.57H84.761V3.654H81.665V12.91H84.761V15.995H75.264V12.91H78.36V3.654H75.264V0.57ZM99.548 13.887H92.555L91.493 16H88.082L96.043 0L104.005 16H100.594L99.548 13.887ZM93.92 11.134H98.148L96.021 6.884L93.92 11.134ZM104.319 0.57H117.547V3.654H112.588V15.995H109.28V3.655H104.319V0.568V0.57ZM132.524 3.656H125.13V6.623H131.816V9.708H125.13V12.912H132.635V15.997H121.816V0.57H132.517L132.524 3.656ZM141.548 8.854V16H138.241V0.574H141.548V7.46L146.791 0.575H150.784L145.048 8.048L151.309 16H147.364L141.548 8.854ZM164.036 13.887H157.044L155.981 16H152.578L160.54 0L168.5 16H165.099L164.036 13.887ZM158.408 11.134H162.638L160.511 6.884L158.408 11.134Z" fill="white"/>
</svg>
