<svg width="25" height="24" viewBox="0 0 25 24" fill="none" xmlns="http://www.w3.org/2000/svg">
<path fill-rule="evenodd" clip-rule="evenodd" d="M13.2158 6.03528C13.2158 6.046 13.2156 6.05667 13.2151 6.06728C16.384 6.35222 19.0125 8.51224 19.9826 11.4295H20.8402C21.7569 11.4295 22.5 12.1726 22.5 13.0892C22.5 14.0059 21.7569 14.749 20.8402 14.749H20.3406C19.926 18.713 16.5738 21.8029 12.5 21.8029C8.42614 21.8029 5.07398 18.713 4.6593 14.749H4.15975C3.24307 14.749 2.5 14.0059 2.5 13.0892C2.5 12.1726 3.24307 11.4295 4.15975 11.4295H5.01731C5.98749 8.51217 8.61603 6.35213 11.785 6.06726C11.7845 6.05666 11.7843 6.046 11.7843 6.03528C11.7843 5.05448 10.9912 4.26141 10.0104 4.26141C9.61514 4.26141 9.29468 3.94095 9.29468 3.54565C9.29468 3.15034 9.61514 2.82988 10.0104 2.82988C10.9589 2.82988 11.8107 3.24099 12.3973 3.89488C13.1104 2.75642 14.376 2 15.8196 2C16.2149 2 16.5354 2.32046 16.5354 2.71577C16.5354 3.11108 16.2149 3.43154 15.8196 3.43154C14.3801 3.43154 13.2158 4.59577 13.2158 6.03528ZM7.47912 12.6031C7.78354 12.8553 8.23476 12.8129 8.48694 12.5085C8.70545 12.2447 8.95947 12.1452 9.18055 12.1452C9.40163 12.1452 9.65566 12.2447 9.87416 12.5085C10.1263 12.8129 10.5776 12.8553 10.882 12.6031C11.1864 12.3509 11.2288 11.8997 10.9766 11.5953C10.5076 11.0292 9.86055 10.7137 9.18055 10.7137C8.50055 10.7137 7.85349 11.0292 7.38453 11.5953C7.13235 11.8997 7.1747 12.3509 7.47912 12.6031ZM14.118 12.6031C14.4225 12.8553 14.8737 12.8129 15.1259 12.5085C15.3444 12.2447 15.5984 12.1452 15.8195 12.1452C16.0406 12.1452 16.2946 12.2447 16.5131 12.5085C16.7653 12.8129 17.2165 12.8553 17.5209 12.6031C17.8253 12.3509 17.8677 11.8997 17.6155 11.5953C17.1465 11.0292 16.4995 10.7137 15.8195 10.7137C15.1395 10.7137 14.4924 11.0292 14.0235 11.5953C13.7713 11.8997 13.8136 12.3509 14.118 12.6031ZM15.861 15.1224C15.861 17.2307 14.3655 18.9399 12.5208 18.9399C10.676 18.9399 9.18051 17.2307 9.18051 15.1224H15.861Z" fill="#FFCC00"/>
</svg>
