<svg width="72" height="16" viewBox="0 0 72 16" fill="none" xmlns="http://www.w3.org/2000/svg">
<g clip-path="url(#clip0_1_337)">
<path d="M36.0839 0.0864264C34.5224 0.0857969 32.9958 0.548044 31.697 1.41475C30.3982 2.28146 29.3854 3.51374 28.7867 4.95584C28.188 6.39795 28.0302 7.98518 28.3333 9.51693C28.6364 11.0487 29.3867 12.4562 30.4895 13.5617C31.5923 14.6671 32.998 15.4209 34.529 15.7277C36.06 16.0345 37.6476 15.8805 39.0912 15.2853C40.5347 14.6901 41.7695 13.6804 42.6393 12.3837C43.5092 11.0869 43.9751 9.56148 43.9783 8.00003C43.9804 6.96182 43.7778 5.93339 43.382 4.97357C42.9863 4.01375 42.4052 3.14138 41.6719 2.40637C40.9387 1.67135 40.0677 1.08812 39.1089 0.690042C38.15 0.291962 37.1221 0.086845 36.0839 0.0864264Z" fill="white"/>
<path d="M18.4488 0.08645C17.3428 0.0846328 16.2533 0.355185 15.2767 0.874214C14.3 1.39324 13.4662 2.14478 12.8488 3.06245C12.0442 1.86606 10.8776 0.958781 9.51997 0.473541C8.16231 -0.0116993 6.68493 -0.0493941 5.30429 0.365979C3.92364 0.781353 2.71231 1.62796 1.84776 2.78176C0.983213 3.93557 0.510892 5.33592 0.5 6.77765L0.5 6.83845V15.4177H2.8104V6.80325C2.81507 5.62442 3.28784 4.49572 4.1247 3.66546C4.96156 2.8352 6.09397 2.37138 7.2728 2.37605C8.45164 2.38072 9.58033 2.85348 10.4106 3.69035C11.2409 4.52721 11.7047 5.65962 11.7 6.83845V15.4177H14.004V6.82245C14.0351 5.66468 14.5168 4.56477 15.3467 3.75687C16.1766 2.94897 17.289 2.4969 18.4472 2.4969C19.6054 2.4969 20.7178 2.94897 21.5477 3.75687C22.3776 4.56477 22.8593 5.66468 22.8904 6.82245V15.4177H25.2008V6.77765C25.1856 4.9972 24.4674 3.2949 23.2027 2.04159C21.938 0.788288 20.2293 0.0855409 18.4488 0.08645Z" fill="white"/>
<path d="M53.6681 0.0896259C51.8973 0.102162 50.2024 0.810513 48.9494 2.06178C47.6963 3.31304 46.9855 5.00686 46.9705 6.77763V6.83843V15.4176H49.2809V6.80323C49.2893 5.63301 49.7592 4.5134 50.5885 3.68771C51.4178 2.86202 52.5394 2.39697 53.7097 2.39363H53.8409V0.0864258H53.6713L53.6681 0.0896259Z" fill="white"/>
<path d="M63.7704 0.105593C62.3683 0.105548 60.9915 0.478773 59.7814 1.18692C58.5712 1.89508 57.5714 2.91263 56.8847 4.13503C56.198 5.35744 55.8491 6.74064 55.8738 8.14252C55.8985 9.5444 56.296 10.9144 57.0254 12.1118C57.7549 13.3093 58.7899 14.2909 60.0243 14.9559C61.2586 15.621 62.6478 15.9454 64.049 15.8959C65.4502 15.8464 66.813 15.4247 67.9974 14.6742C69.1817 13.9238 70.1449 12.8715 70.788 11.6256L68.7688 10.5088C68.2244 11.5954 67.3404 12.4748 66.2511 13.0137C65.1617 13.5526 63.9264 13.7217 62.7323 13.4951C61.5382 13.2686 60.4506 12.6589 59.6343 11.7585C58.818 10.8581 58.3175 9.71609 58.2088 8.50559H71.6488C71.6488 8.34559 71.6744 8.18559 71.6744 8.01919C71.6765 6.98018 71.4736 5.95097 71.0772 4.99052C70.6809 4.03007 70.0989 3.15727 69.3647 2.42213C68.6304 1.687 67.7583 1.10396 66.7984 0.706449C65.8384 0.308935 64.8094 0.104749 63.7704 0.105593ZM58.436 6.32319C58.793 5.18845 59.5025 4.19714 60.4616 3.49341C61.4207 2.78969 62.5793 2.41024 63.7688 2.41024C64.9584 2.41024 66.1169 2.78969 67.076 3.49341C68.0351 4.19714 68.7447 5.18845 69.1016 6.32319H58.436Z" fill="white"/>
</g>
<defs>
<clipPath id="clip0_1_337">
<rect width="71.36" height="16" fill="white" transform="translate(0.5)"/>
</clipPath>
</defs>
</svg>
