<svg width="25" height="24" viewBox="0 0 25 24" fill="none" xmlns="http://www.w3.org/2000/svg">
<path fill-rule="evenodd" clip-rule="evenodd" d="M10.75 4C10.75 2.48122 11.9812 1.25 13.5 1.25C15.0188 1.25 16.25 2.48122 16.25 4C16.25 5.51878 15.0188 6.75 13.5 6.75C11.9812 6.75 10.75 5.51878 10.75 4ZM17.743 19.419C17.5668 20.0528 17.2822 20.5956 16.8461 21.0308C15.9651 21.9102 14.6467 22.17 13.03 22.17H6.71C4.9504 22.17 3.66929 21.5766 2.84391 20.5865C2.03859 19.6204 1.75 18.3758 1.75 17.21V12.79C1.75 11.169 2.00954 9.8498 2.88967 8.96967C3.7698 8.08955 5.089 7.83 6.71 7.83H13.03C14.651 7.83 15.9702 8.08955 16.8503 8.96967C17.2835 9.40283 17.5663 9.94234 17.7419 10.5718L19.5905 9.27515C20.3814 8.7227 21.313 8.47275 22.1172 8.89269C22.9212 9.31255 23.25 10.2205 23.25 11.19V18.81C23.25 19.7788 22.9215 20.6883 22.1157 21.1068C21.3099 21.5254 20.3781 21.2705 19.5885 20.7134L19.5875 20.7127L17.743 19.419ZM7 2.25C5.75736 2.25 4.75 3.25736 4.75 4.5C4.75 5.74264 5.75736 6.75 7 6.75C8.24264 6.75 9.25 5.74264 9.25 4.5C9.25 3.25736 8.24264 2.25 7 2.25Z" fill="#FFCC00"/>
</svg>
