<svg width="25" height="24" viewBox="0 0 25 24" fill="none" xmlns="http://www.w3.org/2000/svg">
<path fill-rule="evenodd" clip-rule="evenodd" d="M7.2679 2.25H17.7321C18.5449 2.24999 19.2006 2.24999 19.7315 2.29336C20.2781 2.33803 20.7582 2.43239 21.2025 2.65873C21.9081 3.01825 22.4817 3.59193 22.8413 4.29754C23.0676 4.74175 23.162 5.2219 23.2066 5.76853C23.25 6.29944 23.25 6.95505 23.25 7.76788V12.2321C23.25 13.045 23.25 13.7006 23.2066 14.2315C23.162 14.7781 23.0676 15.2582 22.8413 15.7025C22.4817 16.4081 21.9081 16.9817 21.2025 17.3413C20.7582 17.5676 20.2781 17.662 19.7315 17.7066C19.2006 17.75 18.545 17.75 17.7321 17.75H14.6381L17.9685 20.4143C18.292 20.6731 18.3444 21.1451 18.0857 21.4685C17.8269 21.792 17.3549 21.8444 17.0315 21.5856L12.5 17.9605L7.96852 21.5856C7.64508 21.8444 7.17311 21.792 6.91435 21.4685C6.65559 21.1451 6.70803 20.6731 7.03148 20.4143L10.3619 17.75H7.26788C6.45505 17.75 5.79944 17.75 5.26853 17.7066C4.7219 17.662 4.24175 17.5676 3.79754 17.3413C3.09193 16.9817 2.51825 16.4081 2.15873 15.7025C1.93239 15.2582 1.83803 14.7781 1.79336 14.2315C1.74999 13.7006 1.74999 13.0449 1.75 12.2321V7.7679C1.74999 6.95506 1.74999 6.29944 1.79336 5.76853C1.83803 5.2219 1.93239 4.74175 2.15873 4.29754C2.51825 3.59193 3.09193 3.01825 3.79754 2.65873C4.24175 2.43239 4.7219 2.33803 5.26853 2.29336C5.79944 2.24999 6.45506 2.24999 7.2679 2.25Z" fill="#FFCC00"/>
</svg>
