<svg width="25" height="24" viewBox="0 0 25 24" fill="none" xmlns="http://www.w3.org/2000/svg">
<path fill-rule="evenodd" clip-rule="evenodd" d="M12.5 22C18.0228 22 22.5 17.5229 22.5 12C22.5 6.47715 18.0228 2 12.5 2C6.97717 2 2.5 6.47715 2.5 12C2.5 17.5229 6.97717 22 12.5 22ZM12.0367 12.766V8.5H10.4069V12.5648C10.4069 13.0947 10.2794 13.4971 10.0245 13.7721C9.76965 14.0404 9.4342 14.1746 9.01843 14.1746C8.60254 14.1746 8.26709 14.0404 8.01221 13.7721C7.75732 13.4971 7.62988 13.0947 7.62988 12.5648V8.5H6V12.766C6 13.6581 6.27832 14.3691 6.83508 14.899C7.39856 15.4222 8.12634 15.6838 9.01843 15.6838C9.91052 15.6838 10.6349 15.4222 11.1917 14.899C11.7551 14.3691 12.0367 13.6581 12.0367 12.766ZM13.5065 8.5V9.9287H16.8669L13.3456 14.1343V15.5429H19V14.1142H15.3376L18.8088 9.9287V8.5H13.5065Z" fill="#FFCC00"/>
</svg>
